<svg width="108" height="95" viewBox="0 0 108 95" fill="none" xmlns="http://www.w3.org/2000/svg">
<path d="M54.4359 0C21.7755 0 0 26.3077 0 55.4359C0 79.8077 17.9359 94.8903 17.9359 94.8903C19.861 89.9 25.5484 80.1944 29.1968 76.4108C36.6539 67.7513 41.3803 67.9744 54.4359 67.9744C67.4908 67.9744 72.2174 68.7513 79.6744 77.4108C83.3231 81.1944 88.1405 89.9 90.0656 94.8903C90.0656 94.8903 107.872 77.4108 107.872 55.4359C107.872 27.3077 87.0963 0 54.4359 0Z" fill="#40AAFF" stroke="black" stroke-width="0.00115385"/>
<path d="M30.3076 40.3077C30.3076 27.6051 40.6051 17.3077 53.3076 17.3077C66.0104 17.3077 76.3076 27.6051 76.3076 40.3077C76.3076 53.0105 66.0104 63.3077 53.3076 63.3077C40.6051 63.3077 30.3076 53.0105 30.3076 40.3077Z" fill="white" stroke="black" stroke-width="0.00115385"/>
</svg>
