<svg viewBox="0 0 65 65" xml:space="preserve" xmlns="http://www.w3.org/2000/svg"><path d="M57 64H8a1 1 0 0 1-1-1v-6a1 1 0 0 1 1-1h49a1 1 0 0 1 1 1v6a1 1 0 0 1-1 1zM9 62h47v-4H9v4z" fill="#755fdd" class="fill-92278f"></path><path d="M54 58H11a1 1 0 0 1-1-1v-4a1 1 0 0 1 1-1h43a1 1 0 0 1 1 1v4a1 1 0 0 1-1 1zm-42-2h41v-2H12v2z" fill="#755fdd" class="fill-92278f"></path><path d="M23.5 53h-10a.5.5 0 0 1-.5-.5v-3a.5.5 0 0 1 .5-.5h10a.5.5 0 0 1 .5.5v3a.5.5 0 0 1-.5.5zM14 52h9v-2h-9v2zM23.5 35h-10a.5.5 0 0 1-.5-.5v-4a.5.5 0 0 1 .5-.5h10a.5.5 0 0 1 .5.5v4a.5.5 0 0 1-.5.5zM14 34h9v-3h-9v3zM37.5 35h-10a.5.5 0 0 1-.5-.5v-4a.5.5 0 0 1 .5-.5h10a.5.5 0 0 1 .5.5v4a.5.5 0 0 1-.5.5zM28 34h9v-3h-9v3zM51.5 35h-10a.5.5 0 0 1-.5-.5v-4a.5.5 0 0 1 .5-.5h10a.5.5 0 0 1 .5.5v4a.5.5 0 0 1-.5.5zM42 34h9v-3h-9v3zM51.5 53h-10a.5.5 0 0 1-.5-.5v-3a.5.5 0 0 1 .5-.5h10a.5.5 0 0 1 .5.5v3a.5.5 0 0 1-.5.5zM42 52h9v-2h-9v2zM37.5 53h-10a.5.5 0 0 1-.5-.5v-3a.5.5 0 0 1 .5-.5h10a.5.5 0 0 1 .5.5v3a.5.5 0 0 1-.5.5zM28 52h9v-2h-9v2z" fill="#755fdd" class="fill-92278f"></path><path d="M57 32H8a.999.999 0 0 1-.624-1.781l25.044-20a.996.996 0 0 1 1.265.014l23.956 20A1 1 0 0 1 57 32zm-46.145-2h43.387L33.03 12.291 10.855 30z" fill="#755fdd" class="fill-92278f"></path><path d="M33 29.5c-3.584 0-6.5-2.916-6.5-6.5s2.916-6.5 6.5-6.5 6.5 2.916 6.5 6.5-2.916 6.5-6.5 6.5zm0-12c-3.033 0-5.5 2.468-5.5 5.5s2.467 5.5 5.5 5.5 5.5-2.468 5.5-5.5-2.467-5.5-5.5-5.5z" fill="#755fdd" class="fill-ffbe06"></path><path d="M32.443 26.946v-1.067c-.693-.021-1.386-.22-1.782-.484l.297-1.033a3.48 3.48 0 0 0 1.716.483c.693 0 1.166-.341 1.166-.869 0-.495-.385-.813-1.199-1.11-1.155-.419-1.903-.947-1.903-1.971 0-.945.66-1.672 1.771-1.869v-1.078h.902v1.023c.693.021 1.166.187 1.518.362l-.297 1.013c-.264-.121-.748-.375-1.497-.375-.77 0-1.045.396-1.045.771 0 .451.396.704 1.331 1.078 1.232.462 1.782 1.056 1.782 2.035 0 .936-.649 1.761-1.859 1.958v1.134h-.901z" fill="#00A651" class="fill-00a651"></path><g fill="#755fdd" class="fill-92278f"><path d="M43 34h2v15h-2zM48 34h2v15h-2z"></path></g><g fill="#755fdd" class="fill-92278f"><path d="M29 34h2v15h-2zM34 34h2v15h-2z"></path></g><path fill="#755fdd" d="M20 34v15h-3V34h-2v16h7V34z" class="fill-92278f"></path></svg>